<?xml version="1.0" standalone="no"?>
<!DOCTYPE svg PUBLIC "-//W3C//DTD SVG 20010904//EN"
 "http://www.w3.org/TR/2001/REC-SVG-20010904/DTD/svg10.dtd">
<svg version="1.0" xmlns="http://www.w3.org/2000/svg"
 width="16.000000pt" height="16.000000pt" viewBox="0 0 16.000000 16.000000"
 preserveAspectRatio="xMidYMid meet">
<metadata>
Created by potrace 1.11, written by Peter Selinger 2001-2013
</metadata>
<g transform="translate(0.000000,16.000000) scale(0.006154,-0.006154)"
fill="#000000" stroke="none">
<path d="M176 2561 c-4 -6 -73 -271 -81 -314 -3 -10 -7 -27 -10 -37 -3 -10 -8
-27 -10 -37 -2 -10 -11 -44 -19 -76 -9 -32 -16 -63 -16 -70 0 -8 26 -12 85
-12 81 -1 86 0 90 22 16 79 11 73 70 73 l54 0 6 -37 c4 -21 8 -42 9 -48 3 -10
186 -15 186 -5 0 3 -12 51 -26 105 -14 55 -28 109 -30 120 -2 11 -21 88 -42
170 l-38 150 -112 2 c-61 1 -114 -1 -116 -6z m119 -201 c6 -44 9 -59 21 -100
5 -17 1 -20 -31 -20 -30 0 -36 3 -31 16 3 9 11 47 18 85 6 38 12 68 14 67 1
-2 5 -23 9 -48z"/>
<path d="M659 2488 c-1 -23 -1 -421 0 -450 l1 -23 875 0 875 0 0 242 c0 134
-3 243 -7 244 -5 0 -398 1 -876 2 -819 2 -867 1 -868 -15z"/>
<path d="M20 1596 l0 -244 1195 0 1195 0 0 244 0 244 -1195 0 -1195 0 0 -244z"/>
<path d="M35 1240 c-2 -3 5 -23 16 -45 136 -297 143 -315 143 -412 l0 -93 88
0 88 0 1 53 c1 28 0 66 -1 84 -1 21 27 96 81 218 45 102 79 188 76 191 -10 11
-168 9 -176 -1 -4 -5 -18 -48 -31 -95 -30 -111 -35 -120 -44 -79 -17 90 -50
179 -65 180 -83 3 -173 3 -176 -1z"/>
<path d="M651 934 l0 -244 880 0 879 0 0 243 0 244 -879 0 -879 1 -1 -244z"/>
<path d="M127 393 c-26 -103 -50 -199 -53 -213 -3 -14 -9 -41 -15 -60 -21 -73
-21 -90 -2 -91 155 -5 154 -5 158 19 16 78 11 72 70 72 30 0 55 -3 56 -7 4
-38 12 -69 19 -77 7 -7 104 -11 168 -7 15 1 15 3 -38 206 -23 88 -44 169 -46
180 -2 11 -12 52 -22 90 l-18 70 -115 3 -114 3 -48 -188z m178 -82 c3 -25 8
-48 11 -53 3 -4 -11 -8 -30 -8 -31 0 -34 3 -30 23 14 74 18 94 20 112 1 11 3
25 4 30 3 13 17 -48 25 -104z"/>
<path d="M659 515 c-1 0 -2 -109 -3 -242 l-1 -243 47 -1 c63 0 1662 0 1688 0
20 1 20 6 18 243 l-3 243 -872 0 c-480 0 -874 0 -874 0z"/>
</g>
</svg>
