<?xml version="1.0" standalone="no"?>
<!DOCTYPE svg PUBLIC "-//W3C//DTD SVG 20010904//EN"
 "http://www.w3.org/TR/2001/REC-SVG-20010904/DTD/svg10.dtd">
<svg version="1.0" xmlns="http://www.w3.org/2000/svg"
 width="16.000000pt" height="16.000000pt" viewBox="0 0 16.000000 16.000000"
 preserveAspectRatio="xMidYMid meet">
<metadata>
Created by potrace 1.11, written by Peter Selinger 2001-2013
</metadata>
<g transform="translate(0.000000,16.000000) scale(0.006154,-0.006154)"
fill="#000000" stroke="none">
<path d="M4 2531 c-2 -2 -4 -112 -4 -243 l0 -238 68 0 c86 -1 2503 -1 2520 0
9 0 12 55 12 243 l0 242 -1296 0 c-713 0 -1298 -2 -1300 -4z"/>
<path d="M17 1872 c-15 -3 -17 -27 -17 -245 l0 -242 1298 0 1297 0 0 243 0
244 -1281 1 c-704 1 -1288 1 -1297 -1z"/>
<path d="M0 967 l0 -244 1300 0 1300 0 0 244 0 243 -1300 0 -1300 0 0 -243z"/>
<path d="M0 304 l0 -244 1300 0 1300 0 0 244 0 245 -1300 -1 -1300 0 0 -244z"/>
</g>
</svg>
